{
.appVersion = "895";
copyright = "Copyright 2016 Google Inc. All Rights Reserved.";
customParameters = (
{
name = description;
value = "Designed by Monotype design team.";
},
{
name = license;
value = "This Font Software is licensed under the SIL Open Font License, Version 1.1. This Font Software is distributed on an \"AS IS\" BASIS, WITHOUT WARRANTIES OR CONDITIONS OF ANY KIND, either express or implied. See the SIL Open Font License for the specific language, permissions and limitations governing your use of this Font Software.";
},
{
name = licenseURL;
value = "http://scripts.sil.org/OFL";
},
{
name = vendorID;
value = GOOG;
},
{
name = trademark;
value = "Noto is a trademark of Google Inc.";
},
{
name = fsType;
value = (
);
},
{
name = panose;
value = (
2,
11,
5,
2,
4,
5,
4,
2,
2,
4
);
},
{
name = unicodeRanges;
value = (
117
);
},
{
name = codePageRanges;
value = (
1252
);
},
{
name = glyphOrder;
value = (
.notdef,
null,
uni000D,
space,
uniA930,
uniA931,
uniA932,
uniA933,
uniA934,
uniA935,
uniA936,
uniA937,
uniA938,
uniA939,
uniA93A,
uniA93B,
uniA93C,
uniA93D,
uniA93E,
uniA93F,
uniA940,
uniA941,
uniA942,
uniA943,
uniA944,
uniA945,
uniA946,
uniA947,
uniA948,
uniA949,
uniA94A,
uniA94B,
uniA94C,
uniA94D,
uniA94E,
uniA94F,
uniA950,
uniA951,
uniA952,
uniA953,
uniA95F
);
}
);
date = "2016-11-10 14:50:25 +0000";
designer = "Monotype Design Team";
designerURL = "http://www.monotype.com/studio";
familyName = "Noto Sans Rejang";
fontMaster = (
{
ascender = 2189;
capHeight = 1462;
customParameters = (
{
name = typoAscender;
value = 2189;
},
{
name = typoDescender;
value = -600;
},
{
name = typoLineGap;
value = 0;
},
{
name = winAscent;
value = 2189;
},
{
name = winDescent;
value = 600;
},
{
name = hheaAscender;
value = 2189;
},
{
name = hheaDescender;
value = -600;
},
{
name = underlinePosition;
value = -205;
},
{
name = underlineThickness;
value = 102;
}
);
descender = -600;
id = "A6582692-CBE5-4302-95C2-F9F88D0DF9F3";
weightValue = 400;
widthValue = 5;

glyphs = (
{
glyphname = .notdef;
lastChange = "2016-11-10 14:50:12 +0000";
layers = (
{
layerId = "A6582692-CBE5-4302-95C2-F9F88D0DF9F3";
paths = (
{
closed = 1;
nodes = (
"1034 0 LINE",
"1034 1462 LINE",
"193 1462 LINE",
"193 0 LINE"
);
},
{
closed = 1;
nodes = (
"297 1358 LINE",
"930 1358 LINE",
"930 104 LINE",
"297 104 LINE"
);
}
);
width = 1229;
}
);
note = .notdef;
},
{
glyphname = uniA930;
lastChange = "2016-11-10 14:50:09 +0000";
layers = (
{
layerId = "A6582692-CBE5-4302-95C2-F9F88D0DF9F3";
paths = (
{
closed = 1;
nodes = (
"131 0 LINE",
"352 541 LINE SMOOTH",
"370 587 OFFCURVE",
"391 651 OFFCURVE",
"416 733 CURVE",
"424 733 LINE",
"441 670 OFFCURVE",
"460 612 OFFCURVE",
"479 561 CURVE",
"553 385 LINE",
"713 385 LINE",
"496 901 LINE",
"539 1009 OFFCURVE",
"564 1077 OFFCURVE",
"573 1104 CURVE SMOOTH",
"582 1131 OFFCURVE",
"589 1157 OFFCURVE",
"596 1182 CURVE",
"604 1182 LINE",
"612 1146 OFFCURVE",
"634 1083 OFFCURVE",
"670 993 CURVE SMOOTH",
"729 834 LINE",
"895 834 LINE",
"610 1503 LINE",
"590 1503 LINE",
"-41 0 LINE"
);
}
);
width = 977;
}
);
note = uniA930;
unicode = A930;
},
{
glyphname = uniA931;
lastChange = "2016-11-10 14:50:09 +0000";
layers = (
{
layerId = "A6582692-CBE5-4302-95C2-F9F88D0DF9F3";
paths = (
{
closed = 1;
nodes = (
"129 0 LINE",
"532 993 LINE SMOOTH",
"557 1052 OFFCURVE",
"579 1115 OFFCURVE",
"596 1182 CURVE",
"604 1182 LINE",
"616 1137 OFFCURVE",
"638 1074 OFFCURVE",
"670 993 CURVE SMOOTH",
"729 834 LINE",
"895 834 LINE",
"610 1503 LINE",
"590 1503 LINE",
"-43 0 LINE"
);
}
);
width = 938;
}
);
note = uniA931;
unicode = A931;
},
{
glyphname = uniA932;
lastChange = "2016-11-10 14:50:09 +0000";
layers = (
{
layerId = "A6582692-CBE5-4302-95C2-F9F88D0DF9F3";
paths = (
{
closed = 1;
nodes = (
"1120 -41 LINE",
"1751 1464 LINE",
"1579 1464 LINE",
"1178 467 LINE SMOOTH",
"1148 394 OFFCURVE",
"1127 333 OFFCURVE",
"1116 283 CURVE",
"1108 283 LINE",
"1091 338 OFFCURVE",
"1069 399 OFFCURVE",
"1042 467 CURVE SMOOTH",
"938 733 LINE",
"1241 1464 LINE",
"1079 1464 LINE",
"854 926 LINE",
"610 1503 LINE",
"590 1503 LINE",
"-43 2 LINE",
"129 2 LINE",
"532 993 LINE SMOOTH",
"557 1052 OFFCURVE",
"579 1115 OFFCURVE",
"596 1182 CURVE",
"604 1182 LINE",
"616 1137 OFFCURVE",
"638 1074 OFFCURVE",
"670 993 CURVE SMOOTH",
"772 729 LINE",
"467 2 LINE",
"629 2 LINE",
"854 532 LINE",
"1100 -41 LINE"
);
}
);
width = 1700;
}
);
note = uniA932;
unicode = A932;
},
{
glyphname = uniA933;
lastChange = "2016-11-10 14:50:09 +0000";
layers = (
{
layerId = "A6582692-CBE5-4302-95C2-F9F88D0DF9F3";
paths = (
{
closed = 1;
nodes = (
"129 0 LINE",
"352 541 LINE SMOOTH",
"370 587 OFFCURVE",
"391 651 OFFCURVE",
"416 733 CURVE",
"424 733 LINE",
"446 654 OFFCURVE",
"469 594 OFFCURVE",
"492 553 CURVE SMOOTH",
"618 317 LINE",
"897 829 LINE",
"727 1226 OFFCURVE",
"631 1451 OFFCURVE",
"610 1503 CURVE",
"590 1503 LINE",
"-43 0 LINE"
);
},
{
closed = 1;
nodes = (
"496 901 LINE",
"539 1009 OFFCURVE",
"564 1077 OFFCURVE",
"573 1104 CURVE SMOOTH",
"582 1131 OFFCURVE",
"589 1157 OFFCURVE",
"596 1182 CURVE",
"604 1182 LINE",
"612 1146 OFFCURVE",
"634 1083 OFFCURVE",
"670 993 CURVE SMOOTH",
"731 829 LINE",
"618 608 LINE"
);
}
);
width = 977;
}
);
note = uniA933;
unicode = A933;
},
{
glyphname = uniA934;
lastChange = "2016-11-10 14:50:09 +0000";
layers = (
{
layerId = "A6582692-CBE5-4302-95C2-F9F88D0DF9F3";
paths = (
{
closed = 1;
nodes = (
"131 0 LINE",
"340 512 LINE SMOOTH",
"365 573 OFFCURVE",
"386 638 OFFCURVE",
"403 705 CURVE",
"412 705 LINE",
"421 673 OFFCURVE",
"433 640 OFFCURVE",
"448 607 CURVE SMOOTH",
"463 574 OFFCURVE",
"507 484 OFFCURVE",
"580 338 CURVE",
"649 485 LINE",
"731 326 LINE",
"895 326 LINE",
"645 778 LINE",
"580 643 LINE",
"483 872 LINE",
"530 989 OFFCURVE",
"559 1062 OFFCURVE",
"570 1093 CURVE SMOOTH",
"580 1124 OFFCURVE",
"589 1153 OFFCURVE",
"596 1182 CURVE",
"604 1182 LINE",
"616 1137 OFFCURVE",
"638 1074 OFFCURVE",
"670 993 CURVE SMOOTH",
"729 834 LINE",
"895 834 LINE",
"610 1503 LINE",
"590 1503 LINE",
"-41 0 LINE"
);
}
);
width = 977;
}
);
note = uniA934;
unicode = A934;
},
{
glyphname = uniA935;
lastChange = "2016-11-10 14:50:09 +0000";
layers = (
{
layerId = "A6582692-CBE5-4302-95C2-F9F88D0DF9F3";
paths = (
{
closed = 1;
nodes = (
"694 -41 LINE",
"1235 950 LINE SMOOTH",
"1264 1005 OFFCURVE",
"1285 1054 OFFCURVE",
"1298 1098 CURVE",
"1307 1098 LINE",
"1310 992 LINE",
"1315 907 LINE",
"1401 0 LINE",
"1565 0 LINE",
"1399 1503 LINE",
"1370 1503 LINE",
"852 518 LINE",
"839 488 OFFCURVE",
"826 458 OFFCURVE",
"813 428 CURVE SMOOTH",
"799 398 OFFCURVE",
"787 368 OFFCURVE",
"778 338 CURVE",
"770 338 LINE",
"770 407 OFFCURVE",
"766 471 OFFCURVE",
"758 528 CURVE SMOOTH",
"627 1503 LINE",
"606 1503 LINE",
"-41 0 LINE",
"131 0 LINE",
"504 897 LINE SMOOTH",
"522 940 OFFCURVE",
"536 990 OFFCURVE",
"547 1047 CURVE",
"555 1047 LINE",
"555 970 OFFCURVE",
"558 906 OFFCURVE",
"565 856 CURVE SMOOTH",
"674 -41 LINE"
);
}
);
width = 1794;
}
);
note = uniA935;
unicode = A935;
},
{
glyphname = uniA936;
lastChange = "2016-11-10 14:50:09 +0000";
layers = (
{
layerId = "A6582692-CBE5-4302-95C2-F9F88D0DF9F3";
paths = (
{
closed = 1;
nodes = (
"354 -41 LINE",
"989 1464 LINE",
"817 1464 LINE",
"412 473 LINE SMOOTH",
"386 408 OFFCURVE",
"365 344 OFFCURVE",
"348 283 CURVE",
"340 283 LINE",
"318 355 OFFCURVE",
"296 418 OFFCURVE",
"274 473 CURVE SMOOTH",
"213 631 LINE",
"49 631 LINE",
"334 -41 LINE"
);
}
);
width = 938;
}
);
note = uniA936;
unicode = A936;
},
{
glyphname = uniA937;
lastChange = "2016-11-10 14:40:32 +0000";
layers = (
{
layerId = "A6582692-CBE5-4302-95C2-F9F88D0DF9F3";
paths = (
{
closed = 1;
nodes = (
"119 0 LINE",
"731 1464 LINE",
"571 1464 LINE",
"-41 0 LINE"
);
}
);
width = 684;
}
);
note = uniA937;
unicode = A937;
},
{
glyphname = uniA938;
lastChange = "2016-11-10 14:50:09 +0000";
layers = (
{
layerId = "A6582692-CBE5-4302-95C2-F9F88D0DF9F3";
paths = (
{
closed = 1;
nodes = (
"352 -41 LINE",
"561 451 LINE SMOOTH",
"579 493 OFFCURVE",
"597 550 OFFCURVE",
"614 623 CURVE",
"623 623 LINE",
"645 540 OFFCURVE",
"662 486 OFFCURVE",
"674 459 CURVE SMOOTH",
"807 145 LINE",
"827 145 LINE",
"1110 815 LINE",
"946 815 LINE",
"885 658 OFFCURVE",
"850 566 OFFCURVE",
"841 539 CURVE SMOOTH",
"832 512 OFFCURVE",
"824 488 OFFCURVE",
"819 467 CURVE",
"811 467 LINE",
"791 543 OFFCURVE",
"766 611 OFFCURVE",
"698 782 CURVE",
"987 1464 LINE",
"815 1464 LINE",
"668 1100 LINE SMOOTH",
"651 1057 OFFCURVE",
"635 1004 OFFCURVE",
"621 940 CURVE",
"612 940 LINE",
"593 1022 OFFCURVE",
"579 1071 OFFCURVE",
"571 1087 CURVE",
"422 1464 LINE",
"252 1464 LINE",
"535 784 LINE",
"440 543 OFFCURVE",
"386 403 OFFCURVE",
"373 366 CURVE SMOOTH",
"360 328 OFFCURVE",
"352 300 OFFCURVE",
"348 283 CURVE",
"340 283 LINE",
"331 312 OFFCURVE",
"320 345 OFFCURVE",
"308 380 CURVE SMOOTH",
"296 415 OFFCURVE",
"264 498 OFFCURVE",
"213 631 CURVE",
"49 631 LINE",
"332 -41 LINE"
);
}
);
width = 1135;
}
);
note = uniA938;
unicode = A938;
},
{
glyphname = uniA939;
lastChange = "2016-11-10 14:50:09 +0000";
layers = (
{
layerId = "A6582692-CBE5-4302-95C2-F9F88D0DF9F3";
paths = (
{
closed = 1;
nodes = (
"711 473 LINE",
"514 940 LINE",
"602 1176 LINE",
"610 1176 LINE",
"628 1105 OFFCURVE",
"649 1044 OFFCURVE",
"672 993 CURVE SMOOTH",
"741 834 LINE",
"897 834 LINE",
"612 1503 LINE",
"592 1503 LINE",
"-43 0 LINE",
"129 0 LINE",
"190 149 OFFCURVE",
"225 237 OFFCURVE",
"234 263 CURVE SMOOTH",
"242 288 OFFCURVE",
"249 313 OFFCURVE",
"256 336 CURVE",
"264 336 LINE",
"279 270 OFFCURVE",
"302 211 OFFCURVE",
"332 158 CURVE SMOOTH",
"438 -27 LINE"
);
},
{
closed = 1;
nodes = (
"336 504 LINE",
"434 764 LINE",
"442 764 LINE",
"457 709 OFFCURVE",
"472 660 OFFCURVE",
"489 616 CURVE SMOOTH",
"549 473 LINE",
"444 252 LINE"
);
}
);
width = 977;
}
);
note = uniA939;
unicode = A939;
},
{
glyphname = uniA93A;
lastChange = "2016-11-10 14:50:09 +0000";
layers = (
{
layerId = "A6582692-CBE5-4302-95C2-F9F88D0DF9F3";
paths = (
{
closed = 1;
nodes = (
"131 0 LINE",
"326 479 LINE SMOOTH",
"341 516 OFFCURVE",
"362 581 OFFCURVE",
"389 672 CURVE",
"397 672 LINE",
"417 595 OFFCURVE",
"440 535 OFFCURVE",
"465 492 CURVE SMOOTH",
"602 250 LINE",
"932 993 LINE SMOOTH",
"955 1048 OFFCURVE",
"976 1111 OFFCURVE",
"995 1182 CURVE",
"1004 1182 LINE",
"1037 1055 OFFCURVE",
"1066 994 OFFCURVE",
"1130 834 CURVE",
"1294 834 LINE",
"1010 1503 LINE",
"989 1503 LINE",
"803 1051 LINE",
"610 1503 LINE",
"590 1503 LINE",
"-41 0 LINE"
);
},
{
closed = 1;
nodes = (
"469 840 LINE",
"524 973 OFFCURVE",
"557 1056 OFFCURVE",
"568 1089 CURVE SMOOTH",
"579 1121 OFFCURVE",
"588 1152 OFFCURVE",
"596 1182 CURVE",
"604 1182 LINE",
"616 1137 OFFCURVE",
"638 1074 OFFCURVE",
"670 993 CURVE SMOOTH",
"721 864 LINE",
"590 549 LINE"
);
}
);
width = 1335;
}
);
note = uniA93A;
unicode = A93A;
},
{
glyphname = uniA93B;
lastChange = "2016-11-10 14:50:09 +0000";
layers = (
{
layerId = "A6582692-CBE5-4302-95C2-F9F88D0DF9F3";
paths = (
{
closed = 1;
nodes = (
"127 0 LINE",
"532 993 LINE SMOOTH",
"557 1052 OFFCURVE",
"579 1115 OFFCURVE",
"596 1182 CURVE",
"604 1182 LINE",
"616 1137 OFFCURVE",
"638 1074 OFFCURVE",
"670 993 CURVE SMOOTH",
"803 676 LINE",
"823 676 LINE",
"961 993 LINE SMOOTH",
"987 1054 OFFCURVE",
"1007 1117 OFFCURVE",
"1022 1182 CURVE",
"1030 1182 LINE",
"1048 1120 OFFCURVE",
"1070 1057 OFFCURVE",
"1096 993 CURVE SMOOTH",
"1227 676 LINE",
"1247 676 LINE",
"1577 1464 LINE",
"1413 1464 LINE",
"1307 1190 LINE SMOOTH",
"1286 1138 OFFCURVE",
"1264 1074 OFFCURVE",
"1241 999 CURVE",
"1233 999 LINE",
"1210 1074 OFFCURVE",
"1188 1138 OFFCURVE",
"1167 1190 CURVE SMOOTH",
"1038 1503 LINE",
"1018 1503 LINE",
"864 1139 LINE SMOOTH",
"841 1080 OFFCURVE",
"825 1033 OFFCURVE",
"817 999 CURVE",
"809 999 LINE",
"800 1031 OFFCURVE",
"784 1078 OFFCURVE",
"762 1139 CURVE",
"610 1503 LINE",
"590 1503 LINE",
"-45 0 LINE"
);
}
);
width = 1528;
}
);
note = uniA93B;
unicode = A93B;
},
{
glyphname = uniA93C;
lastChange = "2016-11-10 14:50:09 +0000";
layers = (
{
layerId = "A6582692-CBE5-4302-95C2-F9F88D0DF9F3";
paths = (
{
closed = 1;
nodes = (
"125 0 LINE",
"532 993 LINE SMOOTH",
"557 1052 OFFCURVE",
"579 1115 OFFCURVE",
"596 1182 CURVE",
"604 1182 LINE",
"623 1111 OFFCURVE",
"645 1048 OFFCURVE",
"670 993 CURVE SMOOTH",
"743 823 LINE",
"393 0 LINE",
"565 0 LINE",
"973 993 LINE SMOOTH",
"996 1048 OFFCURVE",
"1017 1111 OFFCURVE",
"1036 1182 CURVE",
"1044 1182 LINE",
"1061 1117 OFFCURVE",
"1081 1054 OFFCURVE",
"1106 993 CURVE SMOOTH",
"1169 834 LINE",
"1335 834 LINE",
"1051 1503 LINE",
"1032 1503 LINE",
"870 1128 LINE SMOOTH",
"855 1091 OFFCURVE",
"839 1042 OFFCURVE",
"823 981 CURVE",
"815 981 LINE",
"806 1026 OFFCURVE",
"790 1075 OFFCURVE",
"768 1128 CURVE SMOOTH",
"610 1503 LINE",
"590 1503 LINE",
"-47 0 LINE"
);
}
);
width = 1333;
}
);
note = uniA93C;
unicode = A93C;
},
{
glyphname = uniA93D;
lastChange = "2016-11-10 14:50:09 +0000";
layers = (
{
layerId = "A6582692-CBE5-4302-95C2-F9F88D0DF9F3";
paths = (
{
closed = 1;
nodes = (
"543 -41 LINE",
"973 993 LINE",
"1002 1072 OFFCURVE",
"1018 1120 OFFCURVE",
"1023 1136 CURVE SMOOTH",
"1028 1151 OFFCURVE",
"1032 1167 OFFCURVE",
"1036 1182 CURVE",
"1044 1182 LINE",
"1047 1167 OFFCURVE",
"1054 1145 OFFCURVE",
"1065 1114 CURVE SMOOTH",
"1076 1083 OFFCURVE",
"1111 989 OFFCURVE",
"1169 834 CURVE",
"1335 834 LINE",
"1053 1503 LINE",
"1032 1503 LINE",
"870 1128 LINE SMOOTH",
"855 1091 OFFCURVE",
"839 1042 OFFCURVE",
"823 981 CURVE",
"815 981 LINE",
"806 1026 OFFCURVE",
"790 1075 OFFCURVE",
"768 1128 CURVE SMOOTH",
"610 1503 LINE",
"590 1503 LINE",
"-41 0 LINE",
"131 0 LINE",
"260 317 LINE",
"284 388 LINE",
"307 461 LINE",
"315 461 LINE",
"330 402 OFFCURVE",
"346 356 OFFCURVE",
"362 322 CURVE SMOOTH",
"522 -41 LINE"
);
},
{
closed = 1;
nodes = (
"513 320 OFFCURVE",
"504 354 OFFCURVE",
"494 384 CURVE",
"483 413 OFFCURVE",
"448 497 OFFCURVE",
"387 635 CURVE",
"532 993 LINE SMOOTH",
"557 1052 OFFCURVE",
"579 1115 OFFCURVE",
"596 1182 CURVE",
"604 1182 LINE",
"617 1121 OFFCURVE",
"639 1058 OFFCURVE",
"670 993 CURVE",
"743 823 LINE",
"588 437 LINE",
"559 373 OFFCURVE",
"541 322 OFFCURVE",
"532 283 CURVE",
"522 283 LINE"
);
}
);
width = 1333;
}
);
note = uniA93D;
unicode = A93D;
},
{
glyphname = uniA93E;
lastChange = "2016-11-10 14:50:09 +0000";
layers = (
{
layerId = "A6582692-CBE5-4302-95C2-F9F88D0DF9F3";
paths = (
{
closed = 1;
nodes = (
"866 -41 LINE",
"1503 1464 LINE",
"1333 1464 LINE",
"961 532 LINE SMOOTH",
"935 470 OFFCURVE",
"915 411 OFFCURVE",
"901 354 CURVE",
"893 354 LINE",
"885 432 OFFCURVE",
"875 496 OFFCURVE",
"862 545 CURVE SMOOTH",
"621 1503 LINE",
"600 1503 LINE",
"-45 0 LINE",
"127 0 LINE",
"528 958 LINE",
"548 1001 OFFCURVE",
"565 1051 OFFCURVE",
"578 1108 CURVE",
"586 1108 LINE",
"597 1007 OFFCURVE",
"607 944 OFFCURVE",
"614 918 CURVE SMOOTH",
"846 -41 LINE"
);
}
);
width = 1452;
}
);
note = uniA93E;
unicode = A93E;
},
{
glyphname = uniA93F;
lastChange = "2016-11-10 14:50:09 +0000";
layers = (
{
layerId = "A6582692-CBE5-4302-95C2-F9F88D0DF9F3";
paths = (
{
closed = 1;
nodes = (
"426 -41 LINE",
"598 358 LINE SMOOTH",
"621 411 OFFCURVE",
"640 472 OFFCURVE",
"657 539 CURVE",
"666 539 LINE",
"670 474 OFFCURVE",
"678 411 OFFCURVE",
"690 348 CURVE SMOOTH",
"774 -41 LINE",
"795 -41 LINE",
"1427 1462 LINE",
"1255 1462 LINE",
"887 543 LINE SMOOTH",
"880 524 OFFCURVE",
"871 501 OFFCURVE",
"861 475 CURVE SMOOTH",
"850 448 OFFCURVE",
"842 420 OFFCURVE",
"836 391 CURVE",
"827 391 LINE",
"819 479 OFFCURVE",
"813 533 OFFCURVE",
"809 553 CURVE SMOOTH",
"727 950 LINE",
"707 950 LINE",
"596 682 OFFCURVE",
"535 531 OFFCURVE",
"522 498 CURVE SMOOTH",
"509 465 OFFCURVE",
"500 438 OFFCURVE",
"494 418 CURVE",
"485 418 LINE",
"485 436 OFFCURVE",
"485 454 OFFCURVE",
"484 473 CURVE SMOOTH",
"483 509 OFFCURVE",
"481 543 OFFCURVE",
"478 572 CURVE SMOOTH",
"477 586 OFFCURVE",
"476 598 OFFCURVE",
"475 608 CURVE SMOOTH",
"395 1462 LINE",
"231 1462 LINE",
"397 -41 LINE"
);
}
);
width = 1380;
}
);
note = uniA93F;
unicode = A93F;
},
{
glyphname = uniA940;
lastChange = "2016-11-10 14:50:09 +0000";
layers = (
{
layerId = "A6582692-CBE5-4302-95C2-F9F88D0DF9F3";
paths = (
{
closed = 1;
nodes = (
"125 0 LINE",
"532 993 LINE SMOOTH",
"557 1052 OFFCURVE",
"579 1115 OFFCURVE",
"596 1182 CURVE",
"604 1182 LINE",
"623 1111 OFFCURVE",
"645 1048 OFFCURVE",
"670 993 CURVE SMOOTH",
"743 823 LINE",
"393 0 LINE",
"565 0 LINE",
"1180 1462 LINE",
"1012 1462 LINE",
"870 1128 LINE SMOOTH",
"855 1091 OFFCURVE",
"839 1042 OFFCURVE",
"823 981 CURVE",
"815 981 LINE",
"806 1026 OFFCURVE",
"790 1075 OFFCURVE",
"768 1128 CURVE SMOOTH",
"616 1503 LINE",
"590 1503 LINE",
"-47 0 LINE"
);
}
);
width = 1133;
}
);
note = uniA940;
unicode = A940;
},
{
glyphname = uniA941;
lastChange = "2016-11-10 14:50:09 +0000";
layers = (
{
layerId = "A6582692-CBE5-4302-95C2-F9F88D0DF9F3";
paths = (
{
closed = 1;
nodes = (
"354 -41 LINE",
"774 993 LINE SMOOTH",
"799 1052 OFFCURVE",
"821 1115 OFFCURVE",
"838 1182 CURVE",
"846 1182 LINE",
"857 1137 OFFCURVE",
"900 1021 OFFCURVE",
"973 834 CURVE",
"1137 834 LINE",
"854 1503 LINE",
"834 1503 LINE",
"412 473 LINE SMOOTH",
"386 408 OFFCURVE",
"365 344 OFFCURVE",
"348 283 CURVE",
"340 283 LINE",
"318 355 OFFCURVE",
"296 418 OFFCURVE",
"274 473 CURVE SMOOTH",
"213 631 LINE",
"49 631 LINE",
"334 -41 LINE"
);
}
);
width = 1180;
}
);
note = uniA941;
unicode = A941;
},
{
glyphname = uniA942;
lastChange = "2016-11-10 14:50:09 +0000";
layers = (
{
layerId = "A6582692-CBE5-4302-95C2-F9F88D0DF9F3";
paths = (
{
closed = 1;
nodes = (
"600 -41 LINE",
"1233 1464 LINE",
"1063 1464 LINE",
"659 473 LINE SMOOTH",
"635 412 OFFCURVE",
"614 349 OFFCURVE",
"596 283 CURVE",
"588 283 LINE",
"579 316 OFFCURVE",
"561 367 OFFCURVE",
"535 436 CURVE SMOOTH",
"508 504 OFFCURVE",
"471 602 OFFCURVE",
"422 729 CURVE",
"731 1464 LINE",
"571 1464 LINE",
"-41 0 LINE",
"119 0 LINE",
"338 528 LINE",
"580 -41 LINE"
);
}
);
width = 1184;
}
);
note = uniA942;
unicode = A942;
},
{
glyphname = uniA943;
lastChange = "2016-11-10 14:50:09 +0000";
layers = (
{
layerId = "A6582692-CBE5-4302-95C2-F9F88D0DF9F3";
paths = (
{
closed = 1;
nodes = (
"127 0 LINE",
"562 1028 LINE SMOOTH",
"587 1085 OFFCURVE",
"604 1137 OFFCURVE",
"614 1182 CURVE",
"623 1182 LINE",
"628 1164 OFFCURVE",
"633 1146 OFFCURVE",
"640 1128 CURVE SMOOTH",
"653 1091 OFFCURVE",
"667 1057 OFFCURVE",
"679 1029 CURVE SMOOTH",
"685 1015 OFFCURVE",
"690 1003 OFFCURVE",
"694 993 CURVE SMOOTH",
"1122 0 LINE",
"1298 0 LINE",
"631 1503 LINE",
"610 1503 LINE",
"-45 0 LINE"
);
},
{
closed = 1;
nodes = (
"444 0 LINE",
"567 311 LINE SMOOTH",
"584 355 OFFCURVE",
"599 408 OFFCURVE",
"614 469 CURVE",
"623 469 LINE",
"644 395 OFFCURVE",
"664 334 OFFCURVE",
"682 287 CURVE SMOOTH",
"793 0 LINE",
"956 0 LINE",
"631 766 LINE",
"610 766 LINE",
"285 0 LINE"
);
}
);
width = 1245;
}
);
note = uniA943;
unicode = A943;
},
{
glyphname = uniA944;
lastChange = "2016-11-10 14:50:09 +0000";
layers = (
{
layerId = "A6582692-CBE5-4302-95C2-F9F88D0DF9F3";
paths = (
{
closed = 1;
nodes = (
"694 -41 LINE",
"1012 555 LINE",
"1083 -41 LINE",
"1104 -41 LINE",
"1921 1462 LINE",
"1759 1462 LINE",
"1255 518 LINE SMOOTH",
"1228 467 OFFCURVE",
"1203 407 OFFCURVE",
"1182 338 CURVE",
"1174 338 LINE",
"1174 403 OFFCURVE",
"1170 466 OFFCURVE",
"1161 528 CURVE SMOOTH",
"1130 776 LINE",
"1499 1462 LINE",
"1350 1462 LINE",
"1104 997 LINE",
"1047 1462 LINE",
"905 1462 LINE",
"987 776 LINE",
"846 508 LINE SMOOTH",
"815 448 OFFCURVE",
"791 388 OFFCURVE",
"772 328 CURVE",
"764 328 LINE",
"764 397 OFFCURVE",
"760 461 OFFCURVE",
"752 518 CURVE SMOOTH",
"627 1503 LINE",
"606 1503 LINE",
"-41 0 LINE",
"131 0 LINE",
"504 897 LINE SMOOTH",
"522 940 OFFCURVE",
"536 990 OFFCURVE",
"547 1047 CURVE",
"555 1047 LINE",
"555 970 OFFCURVE",
"558 906 OFFCURVE",
"565 856 CURVE SMOOTH",
"674 -41 LINE"
);
}
);
width = 1858;
}
);
note = uniA944;
unicode = A944;
},
{
glyphname = uniA945;
lastChange = "2016-11-10 14:50:09 +0000";
layers = (
{
layerId = "A6582692-CBE5-4302-95C2-F9F88D0DF9F3";
paths = (
{
closed = 1;
nodes = (
"549 -41 LINE",
"973 993 LINE",
"1002 1072 OFFCURVE",
"1018 1120 OFFCURVE",
"1023 1136 CURVE SMOOTH",
"1028 1151 OFFCURVE",
"1032 1167 OFFCURVE",
"1036 1182 CURVE",
"1044 1182 LINE",
"1047 1167 OFFCURVE",
"1054 1145 OFFCURVE",
"1065 1114 CURVE SMOOTH",
"1076 1083 OFFCURVE",
"1111 989 OFFCURVE",
"1169 834 CURVE",
"1329 834 LINE",
"1390 979 LINE SMOOTH",
"1473 1172 OFFCURVE",
"1540 1334 OFFCURVE",
"1593 1464 CURVE",
"1432 1464 LINE",
"1311 1167 LINE SMOOTH",
"1286 1106 OFFCURVE",
"1268 1050 OFFCURVE",
"1255 999 CURVE",
"1247 999 LINE",
"1232 1057 OFFCURVE",
"1210 1121 OFFCURVE",
"1182 1190 CURVE SMOOTH",
"1051 1503 LINE",
"1032 1503 LINE",
"870 1128 LINE SMOOTH",
"855 1091 OFFCURVE",
"839 1042 OFFCURVE",
"823 981 CURVE",
"815 981 LINE",
"806 1026 OFFCURVE",
"790 1075 OFFCURVE",
"768 1128 CURVE SMOOTH",
"610 1503 LINE",
"590 1503 LINE",
"-45 0 LINE",
"127 0 LINE",
"260 317 LINE",
"284 388 LINE",
"307 461 LINE",
"315 461 LINE",
"330 402 OFFCURVE",
"346 356 OFFCURVE",
"362 322 CURVE SMOOTH",
"528 -41 LINE"
);
},
{
closed = 1;
nodes = (
"507 342 OFFCURVE",
"490 395 OFFCURVE",
"469 442 CURVE SMOOTH",
"387 635 LINE",
"532 993 LINE SMOOTH",
"557 1052 OFFCURVE",
"579 1115 OFFCURVE",
"596 1182 CURVE",
"604 1182 LINE",
"617 1121 OFFCURVE",
"639 1058 OFFCURVE",
"670 993 CURVE",
"743 823 LINE",
"588 437 LINE",
"559 373 OFFCURVE",
"541 322 OFFCURVE",
"532 283 CURVE",
"522 283 LINE"
);
}
);
width = 1542;
}
);
note = uniA945;
unicode = A945;
},
{
glyphname = uniA946;
lastChange = "2016-11-10 14:50:09 +0000";
layers = (
{
layerId = "A6582692-CBE5-4302-95C2-F9F88D0DF9F3";
paths = (
{
closed = 1;
nodes = (
"127 0 LINE",
"352 541 LINE SMOOTH",
"370 587 OFFCURVE",
"391 651 OFFCURVE",
"416 733 CURVE",
"424 733 LINE",
"440 667 OFFCURVE",
"458 612 OFFCURVE",
"477 567 CURVE SMOOTH",
"496 522 OFFCURVE",
"521 462 OFFCURVE",
"553 385 CURVE",
"713 385 LINE",
"496 901 LINE",
"540 1012 OFFCURVE",
"567 1082 OFFCURVE",
"576 1110 CURVE SMOOTH",
"585 1137 OFFCURVE",
"591 1161 OFFCURVE",
"596 1182 CURVE",
"604 1182 LINE",
"613 1142 OFFCURVE",
"635 1079 OFFCURVE",
"670 993 CURVE SMOOTH",
"797 676 LINE",
"821 676 LINE",
"1155 1462 LINE",
"993 1462 LINE",
"868 1167 LINE SMOOTH",
"851 1127 OFFCURVE",
"832 1071 OFFCURVE",
"813 999 CURVE",
"805 999 LINE",
"788 1062 OFFCURVE",
"766 1126 OFFCURVE",
"741 1190 CURVE SMOOTH",
"610 1503 LINE",
"590 1503 LINE",
"-45 0 LINE"
);
}
);
width = 1104;
}
);
note = uniA946;
unicode = A946;
},
{
glyphname = uniA947;
lastChange = "2016-11-10 14:50:09 +0000";
layers = (
{
layerId = "A6582692-CBE5-4302-95C2-F9F88D0DF9F3";
paths = (
{
closed = 1;
nodes = (
"231 268 OFFCURVE",
"285 305 OFFCURVE",
"285 381 CURVE SMOOTH",
"285 458 OFFCURVE",
"231 494 OFFCURVE",
"166 494 CURVE SMOOTH",
"98 494 OFFCURVE",
"47 460 OFFCURVE",
"47 381 CURVE SMOOTH",
"47 305 OFFCURVE",
"98 268 OFFCURVE",
"166 268 CURVE SMOOTH"
);
}
);
width = 332;
}
);
note = uniA947;
unicode = A947;
},
{
glyphname = uniA948;
lastChange = "2016-11-10 14:50:09 +0000";
layers = (
{
layerId = "A6582692-CBE5-4302-95C2-F9F88D0DF9F3";
paths = (
{
closed = 1;
nodes = (
"112 -369 OFFCURVE",
"164 -332 OFFCURVE",
"164 -256 CURVE SMOOTH",
"164 -187 OFFCURVE",
"121 -143 OFFCURVE",
"45 -143 CURVE SMOOTH",
"-23 -143 OFFCURVE",
"-74 -177 OFFCURVE",
"-74 -256 CURVE SMOOTH",
"-74 -332 OFFCURVE",
"-23 -369 OFFCURVE",
"45 -369 CURVE SMOOTH"
);
}
);
width = 0;
}
);
note = uniA948;
unicode = A948;
},
{
glyphname = uniA949;
lastChange = "2016-11-10 14:40:32 +0000";
layers = (
{
layerId = "A6582692-CBE5-4302-95C2-F9F88D0DF9F3";
paths = (
{
closed = 1;
nodes = (
"227 662 LINE",
"227 1085 LINE",
"68 1085 LINE",
"68 662 LINE"
);
}
);
width = 0;
}
);
note = uniA949;
unicode = A949;
},
{
glyphname = uniA94A;
lastChange = "2016-11-10 14:50:09 +0000";
layers = (
{
layerId = "A6582692-CBE5-4302-95C2-F9F88D0DF9F3";
paths = (
{
closed = 1;
nodes = (
"496 1593 LINE",
"576 1732 OFFCURVE",
"620 1810 OFFCURVE",
"628 1825 CURVE SMOOTH",
"636 1840 OFFCURVE",
"644 1855 OFFCURVE",
"651 1870 CURVE",
"668 1810 OFFCURVE",
"690 1749 OFFCURVE",
"717 1688 CURVE SMOOTH",
"760 1593 LINE",
"903 1593 LINE",
"741 1950 LINE",
"571 1950 LINE",
"352 1593 LINE"
);
}
);
width = 0;
}
);
note = uniA94A;
unicode = A94A;
},
{
glyphname = uniA94B;
lastChange = "2016-11-10 14:50:09 +0000";
layers = (
{
layerId = "A6582692-CBE5-4302-95C2-F9F88D0DF9F3";
paths = (
{
closed = 1;
nodes = (
"207 662 LINE",
"207 1085 LINE",
"47 1085 LINE",
"47 662 LINE"
);
},
{
closed = 1;
nodes = (
"294 -369 OFFCURVE",
"346 -334 OFFCURVE",
"346 -258 CURVE SMOOTH",
"346 -186 OFFCURVE",
"303 -143 OFFCURVE",
"227 -143 CURVE SMOOTH",
"159 -143 OFFCURVE",
"108 -175 OFFCURVE",
"108 -258 CURVE SMOOTH",
"108 -334 OFFCURVE",
"159 -369 OFFCURVE",
"227 -369 CURVE SMOOTH"
);
}
);
width = 0;
}
);
note = uniA94B;
unicode = A94B;
},
{
glyphname = uniA94C;
lastChange = "2016-11-10 14:50:09 +0000";
layers = (
{
layerId = "A6582692-CBE5-4302-95C2-F9F88D0DF9F3";
paths = (
{
closed = 1;
nodes = (
"258 -287 LINE",
"126 -287 OFFCURVE",
"76 -232 OFFCURVE",
"76 -92 CURVE",
"-82 -92 LINE",
"-82 -313 OFFCURVE",
"33 -416 OFFCURVE",
"258 -416 CURVE"
);
}
);
width = 0;
}
);
note = uniA94C;
unicode = A94C;
},
{
glyphname = uniA94D;
lastChange = "2016-11-10 14:40:32 +0000";
layers = (
{
layerId = "A6582692-CBE5-4302-95C2-F9F88D0DF9F3";
paths = (
{
closed = 1;
nodes = (
"-4 -416 LINE",
"-4 -90 LINE",
"-156 -90 LINE",
"-156 -416 LINE"
);
},
{
closed = 1;
nodes = (
"301 -416 LINE",
"301 -90 LINE",
"150 -90 LINE",
"150 -416 LINE"
);
}
);
width = 0;
}
);
note = uniA94D;
unicode = A94D;
},
{
glyphname = uniA94E;
lastChange = "2016-11-10 14:40:32 +0000";
layers = (
{
layerId = "A6582692-CBE5-4302-95C2-F9F88D0DF9F3";
paths = (
{
closed = 1;
nodes = (
"618 -416 LINE",
"618 -90 LINE",
"467 -90 LINE",
"467 -416 LINE"
);
},
{
closed = 1;
nodes = (
"313 -416 LINE",
"313 -90 LINE",
"162 -90 LINE",
"162 -416 LINE"
);
}
);
width = 0;
}
);
note = uniA94E;
unicode = A94E;
},
{
glyphname = uniA94F;
lastChange = "2016-11-10 14:50:09 +0000";
layers = (
{
layerId = "A6582692-CBE5-4302-95C2-F9F88D0DF9F3";
paths = (
{
closed = 1;
nodes = (
"928 1927 LINE",
"788 1987 LINE",
"578 1612 LINE",
"717 1552 LINE"
);
}
);
width = 0;
}
);
note = uniA94F;
unicode = A94F;
},
{
glyphname = uniA950;
lastChange = "2016-11-10 14:50:09 +0000";
layers = (
{
layerId = "A6582692-CBE5-4302-95C2-F9F88D0DF9F3";
paths = (
{
closed = 1;
nodes = (
"1092 1927 LINE",
"952 1987 LINE",
"741 1612 LINE",
"881 1552 LINE"
);
},
{
closed = 1;
nodes = (
"758 1927 LINE",
"618 1987 LINE",
"408 1612 LINE",
"547 1552 LINE"
);
}
);
width = 0;
}
);
note = uniA950;
unicode = A950;
},
{
glyphname = uniA951;
lastChange = "2016-11-10 14:50:09 +0000";
layers = (
{
layerId = "A6582692-CBE5-4302-95C2-F9F88D0DF9F3";
paths = (
{
closed = 1;
nodes = (
"705 1593 LINE",
"924 1950 LINE",
"780 1950 LINE",
"700 1811 OFFCURVE",
"656 1734 OFFCURVE",
"648 1719 CURVE SMOOTH",
"640 1704 OFFCURVE",
"632 1688 OFFCURVE",
"625 1673 CURVE",
"608 1733 OFFCURVE",
"586 1794 OFFCURVE",
"559 1855 CURVE SMOOTH",
"516 1950 LINE",
"373 1950 LINE",
"535 1593 LINE"
);
}
);
width = 0;
}
);
note = uniA951;
unicode = A951;
},
{
glyphname = uniA952;
lastChange = "2016-11-10 14:50:09 +0000";
layers = (
{
layerId = "A6582692-CBE5-4302-95C2-F9F88D0DF9F3";
paths = (
{
closed = 1;
nodes = (
"217 670 OFFCURVE",
"268 705 OFFCURVE",
"268 776 CURVE SMOOTH",
"268 849 OFFCURVE",
"217 881 OFFCURVE",
"156 881 CURVE SMOOTH",
"92 881 OFFCURVE",
"43 851 OFFCURVE",
"43 776 CURVE SMOOTH",
"43 704 OFFCURVE",
"92 670 OFFCURVE",
"156 670 CURVE SMOOTH"
);
},
{
closed = 1;
nodes = (
"217 20 OFFCURVE",
"268 53 OFFCURVE",
"268 125 CURVE SMOOTH",
"268 198 OFFCURVE",
"217 231 OFFCURVE",
"156 231 CURVE SMOOTH",
"92 231 OFFCURVE",
"43 200 OFFCURVE",
"43 125 CURVE SMOOTH",
"43 53 OFFCURVE",
"92 20 OFFCURVE",
"156 20 CURVE SMOOTH"
);
}
);
width = 311;
}
);
note = uniA952;
unicode = A952;
},
{
glyphname = uniA953;
lastChange = "2016-11-10 14:50:09 +0000";
layers = (
{
layerId = "A6582692-CBE5-4302-95C2-F9F88D0DF9F3";
paths = (
{
closed = 1;
nodes = (
"874 1579 OFFCURVE",
"967 1661 OFFCURVE",
"967 1788 CURVE SMOOTH",
"967 1915 OFFCURVE",
"872 1999 OFFCURVE",
"741 1999 CURVE SMOOTH",
"605 1999 OFFCURVE",
"516 1916 OFFCURVE",
"516 1788 CURVE SMOOTH",
"516 1660 OFFCURVE",
"608 1579 OFFCURVE",
"741 1579 CURVE SMOOTH"
);
},
{
closed = 1;
nodes = (
"658 1669 OFFCURVE",
"614 1717 OFFCURVE",
"614 1788 CURVE SMOOTH",
"614 1864 OFFCURVE",
"664 1909 OFFCURVE",
"741 1909 CURVE SMOOTH",
"821 1909 OFFCURVE",
"868 1864 OFFCURVE",
"868 1788 CURVE SMOOTH",
"868 1717 OFFCURVE",
"820 1669 OFFCURVE",
"741 1669 CURVE SMOOTH"
);
}
);
width = 0;
}
);
note = uniA953;
unicode = A953;
},
{
glyphname = uniA95F;
lastChange = "2016-11-10 14:50:09 +0000";
layers = (
{
layerId = "A6582692-CBE5-4302-95C2-F9F88D0DF9F3";
paths = (
{
closed = 1;
nodes = (
"1018 163 OFFCURVE",
"1053 247 OFFCURVE",
"1053 334 CURVE SMOOTH",
"1053 386 OFFCURVE",
"1036 443 OFFCURVE",
"1001 504 CURVE",
"1035 554 OFFCURVE",
"1058 606 OFFCURVE",
"1069 659 CURVE",
"1161 631 OFFCURVE",
"1223 558 OFFCURVE",
"1223 446 CURVE",
"1335 446 LINE",
"1328 621 OFFCURVE",
"1231 747 OFFCURVE",
"1071 780 CURVE",
"1060 844 OFFCURVE",
"1041 896 OFFCURVE",
"1016 936 CURVE",
"1046 954 OFFCURVE",
"1081 963 OFFCURVE",
"1120 963 CURVE SMOOTH",
"1173 963 OFFCURVE",
"1225 940 OFFCURVE",
"1276 893 CURVE",
"1356 977 LINE",
"1276 1045 OFFCURVE",
"1193 1079 OFFCURVE",
"1108 1079 CURVE SMOOTH",
"1048 1079 OFFCURVE",
"989 1061 OFFCURVE",
"930 1024 CURVE",
"883 1059 OFFCURVE",
"831 1081 OFFCURVE",
"776 1090 CURVE",
"811 1182 OFFCURVE",
"882 1249 OFFCURVE",
"993 1249 CURVE",
"993 1360 LINE",
"821 1352 OFFCURVE",
"695 1259 OFFCURVE",
"655 1094 CURVE",
"597 1085 OFFCURVE",
"547 1066 OFFCURVE",
"504 1038 CURVE",
"485 1069 OFFCURVE",
"475 1105 OFFCURVE",
"475 1145 CURVE SMOOTH",
"475 1197 OFFCURVE",
"498 1249 OFFCURVE",
"545 1300 CURVE",
"463 1382 LINE",
"392 1301 OFFCURVE",
"356 1217 OFFCURVE",
"356 1130 CURVE SMOOTH",
"356 1073 OFFCURVE",
"375 1014 OFFCURVE",
"412 954 CURVE",
"377 906 OFFCURVE",
"355 856 OFFCURVE",
"348 805 CURVE",
"253 834 OFFCURVE",
"190 907 OFFCURVE",
"190 1020 CURVE",
"78 1020 LINE",
"86 843 OFFCURVE",
"180 722 OFFCURVE",
"344 682 CURVE",
"351 626 OFFCURVE",
"368 574 OFFCURVE",
"395 526 CURVE",
"358 511 OFFCURVE",
"325 504 OFFCURVE",
"295 504 CURVE SMOOTH",
"238 504 OFFCURVE",
"186 526 OFFCURVE",
"137 571 CURVE",
"55 489 LINE",
"135 421 OFFCURVE",
"219 387 OFFCURVE",
"307 387 CURVE SMOOTH",
"372 387 OFFCURVE",
"430 405 OFFCURVE",
"483 440 CURVE",
"521 409 OFFCURVE",
"571 387 OFFCURVE",
"633 373 CURVE",
"605 277 OFFCURVE",
"527 217 OFFCURVE",
"420 217 CURVE",
"420 104 LINE",
"601 115 OFFCURVE",
"724 218 OFFCURVE",
"756 373 CURVE",
"808 376 OFFCURVE",
"860 392 OFFCURVE",
"911 420 CURVE",
"928 387 OFFCURVE",
"936 354 OFFCURVE",
"936 319 CURVE SMOOTH",
"936 268 OFFCURVE",
"913 217 OFFCURVE",
"866 166 CURVE",
"948 84 LINE"
);
},
{
closed = 1;
nodes = (
"574 479 OFFCURVE",
"475 582 OFFCURVE",
"475 733 CURVE SMOOTH",
"475 878 OFFCURVE",
"574 985 OFFCURVE",
"705 985 CURVE SMOOTH",
"840 985 OFFCURVE",
"938 884 OFFCURVE",
"938 733 CURVE SMOOTH",
"938 582 OFFCURVE",
"838 479 OFFCURVE",
"707 479 CURVE SMOOTH"
);
}
);
width = 1368;
}
);
note = uniA95F;
unicode = A95F;
},
